<svg width="1024" height="1024" viewBox="0 0 1024 1024" fill="none" xmlns="http://www.w3.org/2000/svg">
<g clip-path="url(#clip0)">
<rect x="9" y="9" width="1006" height="1006" fill="#556F44" stroke="#242832" stroke-width="18"/>
<g clip-path="url(#clip1)">
<g filter="url(#filter0_d)">
<path d="M1016.82 101H1242.27L-1139.75 1045.59H-1365.2L1016.82 101Z" fill="#242832"/>
<path d="M1467.72 101H1693.17L-688.85 1045.59H-914.301L1467.72 101Z" fill="#242832"/>
<path d="M1918.62 101H2144.08L-237.95 1045.59H-463.4L1918.62 101Z" fill="#242832"/>
</g>
</g>
<path fill-rule="evenodd" clip-rule="evenodd" d="M215.961 79.194H253.753V91.791H266.351V104.388H278.948V116.985H291.545V129.582H304.143V142.179H316.74V154.776H329.338V167.373H341.935V179.97H329.338V192.567H266.351V179.97H241.156V154.776H253.753V167.373H278.948V179.97H304.143V167.373H291.545V154.776H266.351V142.179H228.558V154.776H215.961V167.373H228.558V179.97H241.156V192.567H253.753V205.164H278.948V217.761H304.143V205.164H341.935V230.358H316.74V242.955H228.558V230.358H203.364V255.552H190.766V419.313H203.364V469.702H215.961V507.493H228.558V734.239H215.961V746.836H203.364V772.03H215.961V759.433H228.558V746.836H241.156V709.045H253.753V696.448H278.948V683.851H316.74V671.254H354.532V658.657H417.519V671.254H480.507V683.851H505.701V696.448H518.299V709.045H530.896V671.254H556.091V658.657H581.286V646.06H606.481V633.463H644.273V620.866H669.468V608.269H845.831V620.866H871.026V633.463H896.221V646.06H908.818V658.657H934.013V671.254H946.61V683.851H959.208V696.448H971.805V721.642H984.403V759.433H971.805V772.03H959.208V797.224H934.013V809.821H908.818V822.418H883.623V835.015H845.831V847.612H808.039V860.209H757.649V872.806H682.065V860.209H568.688V847.612H581.286V835.015H556.091V847.612H530.896V860.209H467.909V872.806H392.325V885.403H228.558V872.806H178.169V860.209H140.377V847.612H102.584V835.015H77.3896V822.418H64.7922V759.433H52.1948V469.702H64.7922V356.328H77.3896V293.343H89.987V242.955H102.584V179.97H115.182V154.776H140.377V142.179H152.974V129.582H165.571V116.985H190.766V104.388H203.364V91.791H215.961V79.194ZM808.039 784.627V772.03H833.234V759.433H858.429V746.836H820.636V759.433H795.442V772.03H694.662V759.433H669.468V772.03H682.065V784.627H808.039Z" fill="#556F44"/>
<path d="M228.558 54H241.156V66.597H266.351V79.194H278.948V91.791H291.545V104.388H304.143V116.985H316.74V129.582H329.338V142.179H341.935V154.776H354.532V167.373H367.13V179.97H354.532V192.567H341.935V205.164H304.143V217.761H278.948V205.164H253.753V192.567H241.156V179.97H266.351V192.567H329.338V179.97H341.935V167.373H329.338V154.776H316.74V142.179H304.143V129.582H291.545V116.985H278.948V104.388H266.351V91.791H253.753V79.194H215.961V91.791H203.364V104.388H190.766V116.985H165.571V104.388H178.169V91.791H190.766V79.194H203.364V66.597H228.558V54Z" fill="#242832"/>
<path d="M115.182 154.776H140.377V142.179H152.974V129.582H165.571V116.985H140.377V129.582H127.779V142.179H115.182V154.776Z" fill="#242832"/>
<path d="M102.584 847.612V835.015H77.3896V822.418H64.7922V759.433H52.1948V469.702H64.7922V356.328H77.3896V293.343H89.987V242.955H102.584V179.97H115.182V154.776H102.584V167.373H89.987V230.358H77.3896V280.746H64.7922V343.731H52.1948V444.507H39.5974V608.269H27V671.254H39.5974V772.03H52.1948V835.015H64.7922V847.612H102.584Z" fill="#242832"/>
<path d="M959.208 797.224H934.013V809.821H908.818V822.418H883.623V835.015H845.831V847.612H808.039V860.209H757.649V872.806H682.065V860.209H568.688V847.612H581.286V835.015H556.091V847.612H530.896V860.209H467.909V872.806H392.325V885.403H228.558V872.806H178.169V860.209H140.377V847.612H102.584V860.209H127.779V872.806H165.571V885.403H215.961V898H417.519V885.403H480.506V872.806H644.273V885.403H770.247V872.806H820.636V860.209H858.429V847.612H896.221V835.015H921.416V822.418H946.61V809.821H959.208V797.224Z" fill="#242832"/>
<path d="M984.403 759.433H971.805V772.03H959.208V797.224H971.805V784.627H984.403V759.433Z" fill="#242832"/>
<path d="M984.403 721.642V759.433H997V721.642H984.403Z" fill="#242832"/>
<path d="M971.805 696.448V721.642H984.403V696.448H971.805Z" fill="#242832"/>
<path d="M896.221 633.463V646.06H908.818V658.657H934.013V671.254H946.61V683.851H959.208V696.448H971.805V671.254H959.208V658.657H946.61V646.06H921.416V633.463H896.221Z" fill="#242832"/>
<path d="M845.831 608.269V620.866H871.026V633.463H896.221V620.866H883.623V608.269H845.831Z" fill="#242832"/>
<path d="M669.468 608.269H845.831V595.672H820.636V583.075H707.26V595.672H669.468V608.269Z" fill="#242832"/>
<path d="M606.481 633.463H644.273V620.866H669.468V608.269H631.675V620.866H606.481V633.463Z" fill="#242832"/>
<path d="M278.948 683.851H316.74V671.254H354.532V658.657H417.519V671.254H480.506V683.851H505.701V696.448H518.299V709.045H530.896V671.254H556.091V658.657H581.286V646.06H606.481V633.463H568.688V646.06H543.494V658.657H518.299V671.254H493.104V658.657H442.714V646.06H341.935V658.657H304.143V671.254H278.948V683.851Z" fill="#242832"/>
<path d="M253.753 696.448V709.045H241.156V746.836H228.558V759.433H215.961V772.03H203.364V746.836H215.961V734.239H228.558V507.493H215.961V469.702H203.364V419.313H190.766V255.552H203.364V230.358H228.558V242.955H316.74V230.358H341.935V205.164H354.532V242.955H329.338V255.552H215.961V280.746H203.364V406.716H215.961V457.104H228.558V494.896H241.156V570.478H253.753V633.463H241.156V696.448H253.753Z" fill="#242832"/>
<path d="M253.753 696.448H278.948V683.851H253.753V696.448Z" fill="#242832"/>
<path d="M228.558 142.179V154.776H215.961V167.373H228.558V179.97H241.156V154.776H253.753V167.373H278.948V179.97H304.143V167.373H291.545V154.776H266.351V142.179H228.558Z" fill="#242832"/>
<path d="M820.636 746.836H858.429V759.433H833.234V772.03H808.039V784.627H682.065V772.03H669.468V759.433H694.662V772.03H795.442V759.433H820.636V746.836Z" fill="#242832"/>
</g>
<defs>
<filter id="filter0_d" x="-1369.2" y="101" width="3517.28" height="952.59" filterUnits="userSpaceOnUse" color-interpolation-filters="sRGB">
<feFlood flood-opacity="0" result="BackgroundImageFix"/>
<feColorMatrix in="SourceAlpha" type="matrix" values="0 0 0 0 0 0 0 0 0 0 0 0 0 0 0 0 0 0 127 0" result="hardAlpha"/>
<feOffset dy="4"/>
<feGaussianBlur stdDeviation="2"/>
<feColorMatrix type="matrix" values="0 0 0 0 0 0 0 0 0 0 0 0 0 0 0 0 0 0 0.25 0"/>
<feBlend mode="normal" in2="BackgroundImageFix" result="effect1_dropShadow"/>
<feBlend mode="normal" in="SourceGraphic" in2="effect1_dropShadow" result="shape"/>
</filter>
<clipPath id="clip0">
<rect width="1024" height="1024" fill="white"/>
</clipPath>
<clipPath id="clip1">
<rect width="1398" height="1024" fill="white" transform="translate(-187)"/>
</clipPath>
</defs>
</svg>
